<mxfile host="Electron" agent="Mozilla/5.0 (Windows NT 10.0; Win64; x64) AppleWebKit/537.36 (KHTML, like Gecko) draw.io/26.0.9 Chrome/128.0.6613.186 Electron/32.2.5 Safari/537.36" version="26.0.9">
  <diagram name="Page-1" id="tR63InaNYFiVMOsuhmDn">
    <mxGraphModel dx="1195" dy="697" grid="1" gridSize="10" guides="1" tooltips="1" connect="1" arrows="1" fold="1" page="1" pageScale="1" pageWidth="1169" pageHeight="827" math="0" shadow="0">
      <root>
        <mxCell id="0" />
        <mxCell id="1" parent="0" />
        <mxCell id="rWJCEb7v9fvlIWdh5QGD-1" value="" style="rounded=0;whiteSpace=wrap;html=1;fillColor=#ffe6cc;strokeColor=#000000;" parent="1" vertex="1">
          <mxGeometry x="480" y="480" width="200" height="280" as="geometry" />
        </mxCell>
        <mxCell id="rWJCEb7v9fvlIWdh5QGD-2" value="&lt;div&gt;&lt;b&gt;NXP&lt;/b&gt;&lt;/div&gt;&lt;b&gt;FRDM-MCXN947&lt;/b&gt;" style="text;html=1;align=center;verticalAlign=middle;whiteSpace=wrap;rounded=0;" parent="1" vertex="1">
          <mxGeometry x="480" y="680" width="200" height="40" as="geometry" />
        </mxCell>
        <mxCell id="rWJCEb7v9fvlIWdh5QGD-3" value="Vcc" style="text;html=1;align=center;verticalAlign=middle;whiteSpace=wrap;rounded=0;strokeColor=#000000;fillColor=#fff2cc;" parent="1" vertex="1">
          <mxGeometry x="490" y="490" width="60" height="30" as="geometry" />
        </mxCell>
        <mxCell id="rWJCEb7v9fvlIWdh5QGD-4" value="GND" style="text;html=1;align=center;verticalAlign=middle;whiteSpace=wrap;rounded=0;strokeColor=#000000;fillColor=#fff2cc;" parent="1" vertex="1">
          <mxGeometry x="550" y="490" width="60" height="30" as="geometry" />
        </mxCell>
        <mxCell id="rWJCEb7v9fvlIWdh5QGD-7" value="" style="ellipse;whiteSpace=wrap;html=1;aspect=fixed;" parent="1" vertex="1">
          <mxGeometry x="480" y="280" width="80" height="80" as="geometry" />
        </mxCell>
        <mxCell id="rWJCEb7v9fvlIWdh5QGD-8" value="Ampermeter" style="text;html=1;align=center;verticalAlign=middle;whiteSpace=wrap;rounded=0;" parent="1" vertex="1">
          <mxGeometry x="490" y="305" width="60" height="30" as="geometry" />
        </mxCell>
        <mxCell id="rWJCEb7v9fvlIWdh5QGD-10" value="" style="endArrow=none;html=1;rounded=0;exitX=0.5;exitY=1;exitDx=0;exitDy=0;entryX=0.5;entryY=0;entryDx=0;entryDy=0;strokeColor=#009900;startFill=0;" parent="1" source="rWJCEb7v9fvlIWdh5QGD-7" target="rWJCEb7v9fvlIWdh5QGD-3" edge="1">
          <mxGeometry width="50" height="50" relative="1" as="geometry">
            <mxPoint x="480" y="570" as="sourcePoint" />
            <mxPoint x="530" y="520" as="targetPoint" />
          </mxGeometry>
        </mxCell>
        <mxCell id="rWJCEb7v9fvlIWdh5QGD-11" value="" style="endArrow=none;html=1;rounded=0;exitX=0.5;exitY=0;exitDx=0;exitDy=0;strokeColor=#009900;entryX=1;entryY=0.5;entryDx=0;entryDy=0;startFill=0;" parent="1" source="rWJCEb7v9fvlIWdh5QGD-4" target="rWJCEb7v9fvlIWdh5QGD-12" edge="1">
          <mxGeometry width="50" height="50" relative="1" as="geometry">
            <mxPoint x="780" y="300" as="sourcePoint" />
            <mxPoint x="640" y="120" as="targetPoint" />
            <Array as="points">
              <mxPoint x="580" y="240" />
              <mxPoint x="640" y="240" />
              <mxPoint x="640" y="130" />
            </Array>
          </mxGeometry>
        </mxCell>
        <mxCell id="rWJCEb7v9fvlIWdh5QGD-12" value="" style="rounded=0;whiteSpace=wrap;html=1;fillColor=#f5f5f5;fontColor=#333333;strokeColor=#000000;" parent="1" vertex="1">
          <mxGeometry x="480" y="100" width="120" height="60" as="geometry" />
        </mxCell>
        <mxCell id="rWJCEb7v9fvlIWdh5QGD-13" value="" style="rounded=0;whiteSpace=wrap;html=1;" parent="1" vertex="1">
          <mxGeometry x="470" y="110" width="10" height="40" as="geometry" />
        </mxCell>
        <mxCell id="rWJCEb7v9fvlIWdh5QGD-14" value="" style="rounded=0;whiteSpace=wrap;html=1;fillColor=#fff2cc;strokeColor=#000000;" parent="1" vertex="1">
          <mxGeometry x="480" y="100" width="50" height="60" as="geometry" />
        </mxCell>
        <mxCell id="rWJCEb7v9fvlIWdh5QGD-15" value="" style="endArrow=none;html=1;rounded=0;exitX=0;exitY=0.5;exitDx=0;exitDy=0;entryX=0.5;entryY=0;entryDx=0;entryDy=0;strokeColor=#009900;startFill=0;" parent="1" source="rWJCEb7v9fvlIWdh5QGD-13" target="rWJCEb7v9fvlIWdh5QGD-7" edge="1">
          <mxGeometry width="50" height="50" relative="1" as="geometry">
            <mxPoint x="370" y="205" as="sourcePoint" />
            <mxPoint x="370" y="335" as="targetPoint" />
            <Array as="points">
              <mxPoint x="440" y="130" />
              <mxPoint x="440" y="240" />
              <mxPoint x="520" y="240" />
            </Array>
          </mxGeometry>
        </mxCell>
        <mxCell id="rWJCEb7v9fvlIWdh5QGD-16" value="&lt;font style=&quot;font-size: 17px;&quot;&gt;&lt;b&gt;+&lt;/b&gt;&lt;/font&gt;" style="text;html=1;align=center;verticalAlign=middle;whiteSpace=wrap;rounded=0;" parent="1" vertex="1">
          <mxGeometry x="480" y="115" width="30" height="30" as="geometry" />
        </mxCell>
        <mxCell id="rWJCEb7v9fvlIWdh5QGD-17" value="&lt;font style=&quot;font-size: 17px;&quot;&gt;&lt;b&gt;-&lt;/b&gt;&lt;/font&gt;" style="text;html=1;align=center;verticalAlign=middle;whiteSpace=wrap;rounded=0;" parent="1" vertex="1">
          <mxGeometry x="570" y="115" width="30" height="30" as="geometry" />
        </mxCell>
        <mxCell id="197RVT7CPdTqZRqUwDAz-6" value="" style="group;fillColor=#f5f5f5;fontColor=#333333;strokeColor=#666666;" vertex="1" connectable="0" parent="1">
          <mxGeometry x="490" y="540" width="60" height="30" as="geometry" />
        </mxCell>
        <mxCell id="197RVT7CPdTqZRqUwDAz-4" value="" style="rounded=0;whiteSpace=wrap;html=1;" vertex="1" parent="197RVT7CPdTqZRqUwDAz-6">
          <mxGeometry width="60" height="30" as="geometry" />
        </mxCell>
        <mxCell id="197RVT7CPdTqZRqUwDAz-5" value="LDO" style="text;html=1;align=center;verticalAlign=middle;whiteSpace=wrap;rounded=0;fillColor=#f5f5f5;fontColor=#333333;strokeColor=#666666;" vertex="1" parent="197RVT7CPdTqZRqUwDAz-6">
          <mxGeometry width="60" height="30" as="geometry" />
        </mxCell>
        <mxCell id="197RVT7CPdTqZRqUwDAz-7" value="" style="group;fillColor=#f5f5f5;fontColor=#333333;strokeColor=#666666;" vertex="1" connectable="0" parent="1">
          <mxGeometry x="490" y="590" width="60" height="30" as="geometry" />
        </mxCell>
        <mxCell id="197RVT7CPdTqZRqUwDAz-1" value="" style="rounded=0;whiteSpace=wrap;html=1;" vertex="1" parent="197RVT7CPdTqZRqUwDAz-7">
          <mxGeometry width="60" height="30" as="geometry" />
        </mxCell>
        <mxCell id="197RVT7CPdTqZRqUwDAz-2" value="jÃ¡dro" style="text;html=1;align=center;verticalAlign=middle;whiteSpace=wrap;rounded=0;fillColor=#f5f5f5;fontColor=#333333;strokeColor=#666666;" vertex="1" parent="197RVT7CPdTqZRqUwDAz-7">
          <mxGeometry width="60" height="30" as="geometry" />
        </mxCell>
        <mxCell id="197RVT7CPdTqZRqUwDAz-8" value="" style="endArrow=none;html=1;rounded=0;exitX=0.5;exitY=1;exitDx=0;exitDy=0;entryX=0.5;entryY=0;entryDx=0;entryDy=0;strokeColor=#009900;startFill=0;" edge="1" parent="1" source="rWJCEb7v9fvlIWdh5QGD-3" target="197RVT7CPdTqZRqUwDAz-5">
          <mxGeometry width="50" height="50" relative="1" as="geometry">
            <mxPoint x="400" y="400" as="sourcePoint" />
            <mxPoint x="400" y="530" as="targetPoint" />
          </mxGeometry>
        </mxCell>
        <mxCell id="197RVT7CPdTqZRqUwDAz-11" value="" style="endArrow=none;html=1;rounded=0;exitX=0.5;exitY=1;exitDx=0;exitDy=0;entryX=0.5;entryY=0;entryDx=0;entryDy=0;strokeColor=#009900;startFill=0;" edge="1" parent="1">
          <mxGeometry width="50" height="50" relative="1" as="geometry">
            <mxPoint x="519.8" y="570" as="sourcePoint" />
            <mxPoint x="519.8" y="590" as="targetPoint" />
          </mxGeometry>
        </mxCell>
        <mxCell id="197RVT7CPdTqZRqUwDAz-12" value="" style="group;fillColor=#f5f5f5;fontColor=#333333;strokeColor=#666666;" vertex="1" connectable="0" parent="1">
          <mxGeometry x="555" y="590" width="60" height="30" as="geometry" />
        </mxCell>
        <mxCell id="197RVT7CPdTqZRqUwDAz-13" value="" style="rounded=0;whiteSpace=wrap;html=1;" vertex="1" parent="197RVT7CPdTqZRqUwDAz-12">
          <mxGeometry width="60" height="30" as="geometry" />
        </mxCell>
        <mxCell id="197RVT7CPdTqZRqUwDAz-14" value="periferie" style="text;html=1;align=center;verticalAlign=middle;whiteSpace=wrap;rounded=0;fillColor=#f5f5f5;fontColor=#333333;strokeColor=#666666;" vertex="1" parent="197RVT7CPdTqZRqUwDAz-12">
          <mxGeometry width="60" height="30" as="geometry" />
        </mxCell>
        <mxCell id="197RVT7CPdTqZRqUwDAz-15" value="" style="endArrow=none;html=1;rounded=0;exitX=1;exitY=0.5;exitDx=0;exitDy=0;entryX=0.5;entryY=0;entryDx=0;entryDy=0;strokeColor=#009900;startFill=0;" edge="1" parent="1" source="197RVT7CPdTqZRqUwDAz-5">
          <mxGeometry width="50" height="50" relative="1" as="geometry">
            <mxPoint x="584.8" y="570" as="sourcePoint" />
            <mxPoint x="584.8" y="590" as="targetPoint" />
            <Array as="points">
              <mxPoint x="585" y="555" />
            </Array>
          </mxGeometry>
        </mxCell>
        <mxCell id="197RVT7CPdTqZRqUwDAz-18" value="" style="endArrow=none;html=1;rounded=0;exitX=1;exitY=0.5;exitDx=0;exitDy=0;entryX=0.5;entryY=1;entryDx=0;entryDy=0;strokeColor=#009900;startFill=0;" edge="1" parent="1" source="rWJCEb7v9fvlIWdh5QGD-4" target="197RVT7CPdTqZRqUwDAz-2">
          <mxGeometry width="50" height="50" relative="1" as="geometry">
            <mxPoint x="529.8" y="580" as="sourcePoint" />
            <mxPoint x="529.8" y="600" as="targetPoint" />
            <Array as="points">
              <mxPoint x="660" y="505" />
              <mxPoint x="660" y="580" />
              <mxPoint x="660" y="650" />
              <mxPoint x="520" y="650" />
            </Array>
          </mxGeometry>
        </mxCell>
        <mxCell id="197RVT7CPdTqZRqUwDAz-19" value="" style="group;fillColor=#f5f5f5;fontColor=#333333;strokeColor=#666666;" vertex="1" connectable="0" parent="1">
          <mxGeometry x="600" y="540" width="40" height="30" as="geometry" />
        </mxCell>
        <mxCell id="197RVT7CPdTqZRqUwDAz-20" value="" style="rounded=0;whiteSpace=wrap;html=1;" vertex="1" parent="197RVT7CPdTqZRqUwDAz-19">
          <mxGeometry x="13.333333333333332" width="26.666666666666664" height="30" as="geometry" />
        </mxCell>
        <mxCell id="197RVT7CPdTqZRqUwDAz-21" value="..." style="text;html=1;align=center;verticalAlign=middle;whiteSpace=wrap;rounded=0;fillColor=#f5f5f5;fontColor=#333333;strokeColor=#666666;" vertex="1" parent="197RVT7CPdTqZRqUwDAz-19">
          <mxGeometry width="40" height="30" as="geometry" />
        </mxCell>
        <mxCell id="197RVT7CPdTqZRqUwDAz-22" value="" style="endArrow=none;html=1;rounded=0;exitX=0;exitY=0.5;exitDx=0;exitDy=0;strokeColor=#009900;startFill=0;" edge="1" parent="1" source="197RVT7CPdTqZRqUwDAz-21">
          <mxGeometry width="50" height="50" relative="1" as="geometry">
            <mxPoint x="530" y="530" as="sourcePoint" />
            <mxPoint x="580" y="555" as="targetPoint" />
          </mxGeometry>
        </mxCell>
        <mxCell id="197RVT7CPdTqZRqUwDAz-23" value="" style="endArrow=classic;html=1;rounded=0;fillColor=#f8cecc;strokeColor=#FF6666;" edge="1" parent="1">
          <mxGeometry width="50" height="50" relative="1" as="geometry">
            <mxPoint x="470" y="280" as="sourcePoint" />
            <mxPoint x="470" y="360" as="targetPoint" />
          </mxGeometry>
        </mxCell>
        <mxCell id="197RVT7CPdTqZRqUwDAz-24" value="&lt;font style=&quot;color: rgb(255, 102, 102);&quot;&gt;I_in&lt;/font&gt;" style="text;html=1;align=center;verticalAlign=middle;whiteSpace=wrap;rounded=0;" vertex="1" parent="1">
          <mxGeometry x="440" y="305" width="30" height="30" as="geometry" />
        </mxCell>
        <mxCell id="197RVT7CPdTqZRqUwDAz-25" value="" style="endArrow=classic;startArrow=classic;html=1;rounded=0;strokeColor=#3333FF;" edge="1" parent="1">
          <mxGeometry width="50" height="50" relative="1" as="geometry">
            <mxPoint x="520" y="440" as="sourcePoint" />
            <mxPoint x="580" y="440" as="targetPoint" />
          </mxGeometry>
        </mxCell>
        <mxCell id="197RVT7CPdTqZRqUwDAz-26" value="&lt;font style=&quot;color: rgb(51, 51, 255);&quot;&gt;U_in&lt;/font&gt;" style="text;html=1;align=center;verticalAlign=middle;whiteSpace=wrap;rounded=0;" vertex="1" parent="1">
          <mxGeometry x="520" y="414" width="60" height="26" as="geometry" />
        </mxCell>
      </root>
    </mxGraphModel>
  </diagram>
</mxfile>
